<?xml version="1.0" encoding="utf-8"?>
<!-- Generator: Adobe Illustrator 27.0.0, SVG Export Plug-In . SVG Version: 6.00 Build 0)  -->
<svg version="1.1" id="Layer_1" xmlns="http://www.w3.org/2000/svg" xmlns:xlink="http://www.w3.org/1999/xlink" x="0px" y="0px"
	 viewBox="0 0 400 66.72" style="enable-background:new 0 0 400 66.72;" xml:space="preserve">
<style type="text/css">
	.st0{fill:#FF4500;}
</style>
<g>
	<path class="st0" d="M29.42,21.72c-2.16-1.45-4.71-2.17-7.65-2.17c-1.91,0-3.62,0.3-5.13,0.9c-1.51,0.6-2.72,1.31-3.64,2.13
		c-0.92,0.82-1.49,1.57-1.71,2.26V0.03H0.12v50.58h11.07v-4.89c0.49,0.91,1.26,1.81,2.3,2.7c1.04,0.89,2.28,1.63,3.71,2.21
		c1.43,0.58,2.96,0.86,4.58,0.86c2.94,0,5.49-0.72,7.65-2.15c2.16-1.43,3.82-3.36,5-5.77c1.18-2.41,1.76-5.09,1.76-8.03
		c0-2.94-0.59-5.62-1.76-8.03C33.24,25.1,31.57,23.17,29.42,21.72z M24.33,39.24c-0.6,1.09-1.42,1.94-2.46,2.55
		c-1.04,0.61-2.21,0.92-3.51,0.92c-1.35,0-2.56-0.31-3.62-0.92c-1.07-0.61-1.91-1.46-2.52-2.55c-0.61-1.09-0.92-2.32-0.92-3.69
		c0-1.37,0.31-2.6,0.92-3.69c0.61-1.09,1.45-1.95,2.52-2.57c1.07-0.62,2.27-0.94,3.62-0.94c1.3,0,2.47,0.31,3.51,0.94
		c1.04,0.62,1.86,1.48,2.46,2.57c0.6,1.09,0.9,2.32,0.9,3.69C25.23,36.92,24.93,38.15,24.33,39.24z"/>
	<rect x="39.05" y="0.03" class="st0" width="11.21" height="50.58"/>
	<path class="st0" d="M79.3,21.65c-2.52-1.4-5.44-2.1-8.75-2.1s-6.24,0.7-8.8,2.1c-2.56,1.4-4.57,3.3-6.03,5.72
		c-1.46,2.41-2.19,5.17-2.19,8.25c0,3.09,0.73,5.83,2.19,8.22c1.46,2.39,3.47,4.26,6.03,5.62c2.56,1.36,5.5,2.04,8.8,2.04
		s6.22-0.68,8.75-2.04c2.52-1.36,4.5-3.23,5.92-5.62c1.42-2.39,2.13-5.13,2.13-8.22c0-3.09-0.71-5.84-2.13-8.25
		C83.8,24.95,81.83,23.05,79.3,21.65z M76.03,39.07c-0.51,1.03-1.24,1.83-2.17,2.39c-0.93,0.56-2.03,0.85-3.31,0.85
		c-1.27,0-2.38-0.28-3.33-0.85c-0.94-0.56-1.68-1.36-2.21-2.39c-0.53-1.03-0.79-2.19-0.79-3.49c0-1.32,0.26-2.5,0.79-3.53
		c0.53-1.03,1.26-1.84,2.21-2.43c0.94-0.59,2.05-0.88,3.33-0.88c1.27,0,2.38,0.29,3.31,0.88c0.93,0.59,1.65,1.4,2.17,2.43
		c0.51,1.03,0.77,2.21,0.77,3.53C76.8,36.88,76.54,38.04,76.03,39.07z"/>
	<path class="st0" d="M114.19,24.85c-0.34-0.69-0.96-1.44-1.84-2.26c-0.88-0.82-2.03-1.53-3.46-2.13c-1.42-0.6-3.08-0.9-4.96-0.9
		c-2.94,0-5.51,0.72-7.72,2.17c-2.21,1.45-3.92,3.38-5.15,5.79c-1.23,2.41-1.84,5.09-1.84,8.03c0,2.94,0.61,5.62,1.84,8.03
		c1.23,2.41,2.94,4.34,5.15,5.77c2.21,1.43,4.78,2.15,7.72,2.15c1.96,0,3.68-0.37,5.15-1.12c1.47-0.75,2.65-1.59,3.55-2.52
		c0.89-0.93,1.45-1.64,1.67-2.13v4.34v0.55v0.18c0,1.54-0.34,2.85-1.01,3.93c-0.67,1.08-1.61,1.9-2.81,2.46
		c-1.2,0.56-2.61,0.85-4.23,0.85c-1.74,0-3.22-0.21-4.43-0.62c-1.21-0.42-2.23-0.94-3.05-1.58c-0.82-0.64-1.51-1.29-2.08-1.95
		l-6.54,6.8c1.23,1.54,2.73,2.76,4.52,3.64c1.79,0.88,3.72,1.51,5.79,1.87c2.07,0.37,4.16,0.55,6.27,0.55
		c3.48,0,6.62-0.58,9.41-1.73c2.79-1.15,5.02-2.87,6.67-5.15c1.65-2.28,2.48-5.09,2.48-8.42v-0.85v-0.55V20.44h-11.1V24.85z
		 M113.25,39.24c-0.6,1.09-1.42,1.94-2.44,2.55c-1.03,0.61-2.22,0.92-3.57,0.92c-1.3,0-2.48-0.31-3.55-0.92
		c-1.07-0.61-1.92-1.46-2.56-2.55c-0.64-1.09-0.96-2.32-0.96-3.69c0-1.37,0.32-2.6,0.96-3.69c0.64-1.09,1.49-1.95,2.56-2.57
		c1.07-0.62,2.25-0.94,3.55-0.94c1.35,0,2.54,0.31,3.57,0.94c1.03,0.62,1.84,1.48,2.44,2.57c0.6,1.09,0.9,2.32,0.9,3.69
		C114.15,36.92,113.85,38.15,113.25,39.24z"/>
	<path class="st0" d="M150.51,33.26c-1.52-0.64-3.01-1.1-4.48-1.4c-1.69-0.34-2.98-0.74-3.88-1.19c-0.89-0.45-1.34-1.06-1.34-1.82
		c0-0.76,0.4-1.32,1.21-1.67c0.81-0.35,1.8-0.53,2.98-0.53c1.54,0,2.95,0.27,4.21,0.81c1.26,0.54,2.13,0.98,2.59,1.32l3.64-6.58
		c-0.32-0.27-1.04-0.61-2.15-1.03c-1.12-0.42-2.49-0.79-4.14-1.12c-1.64-0.33-3.46-0.5-5.44-0.5c-2.33,0-4.52,0.34-6.58,1.01
		c-2.06,0.67-3.74,1.67-5.04,3c-1.3,1.32-1.95,2.99-1.95,5c0,1.57,0.31,2.9,0.92,4.01c0.61,1.1,1.41,2.02,2.39,2.74
		c0.98,0.72,2.02,1.29,3.12,1.71c1.1,0.42,2.14,0.72,3.12,0.92c1.08,0.22,2,0.47,2.76,0.74c0.76,0.27,1.35,0.59,1.76,0.96
		c0.42,0.37,0.62,0.86,0.62,1.47c0,0.76-0.43,1.37-1.29,1.84c-0.86,0.47-2.07,0.7-3.64,0.7c-1.62,0-3.15-0.34-4.6-1.01
		c-1.45-0.67-2.49-1.28-3.12-1.82l-3.6,7.35c0.42,0.32,1.15,0.75,2.21,1.29c1.05,0.54,2.43,1.02,4.14,1.43
		c1.7,0.42,3.71,0.62,6.01,0.62c1.64,0,3.33-0.15,5.07-0.46c1.74-0.31,3.36-0.84,4.85-1.6c1.49-0.76,2.7-1.83,3.6-3.2
		c0.91-1.37,1.36-3.11,1.36-5.22c0-2.06-0.51-3.71-1.53-4.94C153.3,34.84,152.03,33.9,150.51,33.26z"/>
	<path class="st0" d="M177.42,41.79c-0.47,0.29-1.03,0.44-1.69,0.44c-0.98,0-1.65-0.39-2.02-1.16c-0.37-0.77-0.55-1.78-0.55-3.03
		v-8.42h6.76v-9.19h-6.76V8.05h-11.07v12.39h-5.15v9.19h5.15v11.43c0,3.55,0.98,6.18,2.94,7.89c1.96,1.7,4.45,2.55,7.46,2.55
		c1.69,0,3.22-0.16,4.6-0.48c1.37-0.32,2.51-0.67,3.4-1.07c0.89-0.39,1.43-0.66,1.6-0.81l-3.82-7.94
		C178.16,41.3,177.88,41.5,177.42,41.79z"/>
	<path class="st0" d="M207.27,24.85c-0.34-0.69-0.96-1.44-1.84-2.26c-0.88-0.82-2.03-1.53-3.46-2.13c-1.42-0.6-3.08-0.9-4.96-0.9
		c-2.94,0-5.51,0.72-7.72,2.17c-2.21,1.45-3.92,3.38-5.15,5.79c-1.23,2.41-1.84,5.09-1.84,8.03c0,2.94,0.61,5.62,1.84,8.03
		c1.23,2.41,2.94,4.34,5.15,5.77c2.21,1.43,4.78,2.15,7.72,2.15c1.96,0,3.68-0.37,5.15-1.12c1.47-0.75,2.65-1.59,3.55-2.52
		c0.89-0.93,1.45-1.64,1.67-2.13v4.89h10.99V20.44h-11.1V24.85z M206.33,39.24c-0.6,1.09-1.42,1.94-2.45,2.55
		c-1.03,0.61-2.22,0.92-3.57,0.92c-1.3,0-2.48-0.31-3.55-0.92c-1.07-0.61-1.92-1.46-2.56-2.55c-0.64-1.09-0.96-2.32-0.96-3.69
		c0-1.37,0.32-2.6,0.96-3.69c0.64-1.09,1.49-1.95,2.56-2.57c1.07-0.62,2.25-0.94,3.55-0.94c1.35,0,2.54,0.31,3.57,0.94
		c1.03,0.62,1.84,1.48,2.45,2.57c0.6,1.09,0.9,2.32,0.9,3.69C207.23,36.92,206.93,38.15,206.33,39.24z"/>
	<path class="st0" d="M246.49,24.85c-0.34-0.69-0.96-1.44-1.84-2.26c-0.88-0.82-2.03-1.53-3.46-2.13c-1.42-0.6-3.08-0.9-4.96-0.9
		c-2.94,0-5.51,0.72-7.72,2.17c-2.21,1.45-3.92,3.38-5.15,5.79c-1.23,2.41-1.84,5.09-1.84,8.03c0,2.94,0.61,5.62,1.84,8.03
		c1.23,2.41,2.94,4.34,5.15,5.77c2.21,1.43,4.78,2.15,7.72,2.15c1.96,0,3.68-0.37,5.15-1.12c1.47-0.75,2.65-1.59,3.55-2.52
		c0.89-0.93,1.45-1.64,1.67-2.13v4.34v0.55v0.18c0,1.54-0.34,2.85-1.01,3.93c-0.67,1.08-1.61,1.9-2.81,2.46
		c-1.2,0.56-2.61,0.85-4.23,0.85c-1.74,0-3.22-0.21-4.43-0.62c-1.21-0.42-2.23-0.94-3.05-1.58c-0.82-0.64-1.51-1.29-2.08-1.95
		l-6.54,6.8c1.23,1.54,2.73,2.76,4.52,3.64c1.79,0.88,3.72,1.51,5.79,1.87c2.07,0.37,4.16,0.55,6.27,0.55
		c3.48,0,6.62-0.58,9.41-1.73c2.79-1.15,5.02-2.87,6.67-5.15s2.48-5.09,2.48-8.42v-0.85v-0.55V20.44h-11.1V24.85z M245.55,39.24
		c-0.6,1.09-1.42,1.94-2.44,2.55c-1.03,0.61-2.22,0.92-3.57,0.92c-1.3,0-2.48-0.31-3.55-0.92c-1.07-0.61-1.92-1.46-2.55-2.55
		c-0.64-1.09-0.96-2.32-0.96-3.69c0-1.37,0.32-2.6,0.96-3.69c0.64-1.09,1.49-1.95,2.55-2.57c1.07-0.62,2.25-0.94,3.55-0.94
		c1.35,0,2.54,0.31,3.57,0.94c1.03,0.62,1.84,1.48,2.44,2.57c0.6,1.09,0.9,2.32,0.9,3.69C246.46,36.92,246.15,38.15,245.55,39.24z"
		/>
	<path class="st0" d="M286.05,20.2c-1.18-0.43-2.46-0.64-3.86-0.64c-1.99,0-3.66,0.35-5.04,1.05c-1.37,0.7-2.44,1.48-3.2,2.35
		c-0.59,0.67-1,1.25-1.25,1.74v-4.25h-11.18v30.18h11.18V35.47c0-0.96,0.23-1.97,0.68-3.05c0.45-1.08,1.16-2,2.13-2.76
		c0.97-0.76,2.2-1.14,3.69-1.14c1.3,0,2.38,0.23,3.25,0.68c0.87,0.45,1.48,0.89,1.82,1.31l4.34-9.08
		C288.08,21.04,287.22,20.63,286.05,20.2z"/>
	<path class="st0" d="M312.66,24.85c-0.34-0.69-0.96-1.44-1.84-2.26c-0.88-0.82-2.03-1.53-3.46-2.13c-1.42-0.6-3.08-0.9-4.96-0.9
		c-2.94,0-5.51,0.72-7.72,2.17c-2.21,1.45-3.92,3.38-5.15,5.79c-1.23,2.41-1.84,5.09-1.84,8.03c0,2.94,0.61,5.62,1.84,8.03
		c1.23,2.41,2.94,4.34,5.15,5.77c2.21,1.43,4.78,2.15,7.72,2.15c1.96,0,3.68-0.37,5.15-1.12c1.47-0.75,2.65-1.59,3.55-2.52
		c0.89-0.93,1.45-1.64,1.67-2.13v4.89h10.99V20.44h-11.1V24.85z M311.73,39.24c-0.6,1.09-1.42,1.94-2.45,2.55
		c-1.03,0.61-2.22,0.92-3.57,0.92c-1.3,0-2.48-0.31-3.55-0.92c-1.07-0.61-1.92-1.46-2.56-2.55c-0.64-1.09-0.96-2.32-0.96-3.69
		c0-1.37,0.32-2.6,0.96-3.69c0.64-1.09,1.49-1.95,2.56-2.57c1.07-0.62,2.25-0.94,3.55-0.94c1.35,0,2.54,0.31,3.57,0.94
		c1.03,0.62,1.84,1.48,2.45,2.57c0.6,1.09,0.9,2.32,0.9,3.69C312.63,36.92,312.33,38.15,311.73,39.24z"/>
	<path class="st0" d="M376.11,20.97c-1.74-0.94-3.75-1.42-6.03-1.42c-1.76,0-3.41,0.29-4.94,0.88c-1.53,0.59-2.81,1.33-3.82,2.22
		c-1.02,0.89-1.7,1.78-2.04,2.67c-0.47-1.03-1.08-1.99-1.86-2.87c-0.77-0.88-1.76-1.59-2.96-2.11c-1.2-0.53-2.7-0.79-4.48-0.79
		c-1.64,0-3.2,0.28-4.67,0.83c-1.47,0.55-2.7,1.23-3.69,2.02c-0.99,0.8-1.64,1.57-1.93,2.33v-4.3h-11.1v30.18h11.1V34.59
		c0-1.47,0.23-2.73,0.68-3.77c0.45-1.04,1.11-1.85,1.97-2.43c0.86-0.58,1.85-0.86,2.98-0.86c1.76,0,3,0.65,3.69,1.95
		c0.7,1.3,1.05,3,1.05,5.11v16.03h10.26V34.59c0-1.45,0.23-2.69,0.7-3.73c0.46-1.04,1.13-1.86,1.99-2.44
		c0.86-0.59,1.85-0.88,2.98-0.88c1.89,0,3.15,0.65,3.79,1.95c0.64,1.3,0.96,3,0.96,5.11v16.03h10.99V32.9c0-3.09-0.5-5.61-1.49-7.57
		C379.22,23.36,377.85,21.91,376.11,20.97z"/>
	<path class="st0" d="M398.17,40.08c-1.3-1.31-2.88-1.97-4.74-1.97c-1.81,0-3.38,0.66-4.69,1.97c-1.31,1.31-1.97,2.9-1.97,4.76
		c0,1.81,0.66,3.38,1.97,4.69c1.31,1.31,2.87,1.97,4.69,1.97c1.86,0,3.44-0.66,4.74-1.97c1.3-1.31,1.95-2.87,1.95-4.69
		C400.12,42.98,399.47,41.4,398.17,40.08z"/>
</g>
</svg>
